<?xml version="1.0" encoding="UTF-8"?>
<svg id="b" data-name="Layer 2" xmlns="http://www.w3.org/2000/svg" viewBox="0 0 224.9 51.66">
  <defs>
    <style>
      .d {
        fill: #fff;
      }
    </style>
  </defs>
  <g id="c" data-name="Layer 1">
    <g>
      <g>
        <path class="d" d="m.02,1.25l-.02-.29c.17-.21.64-.32,1.41-.32l1.66.02.96.02.43-.02c1.56,0,2.5.02,2.82.07.01.14.02.25.02.32,0,.11-.01.26-.04.46l-1.7.07c-.08.01-.2.04-.34.09-.05.12-.07.21-.07.27,0,.07.04.19.11.34.1.2.18.42.27.64l1.12,3.15,2.68,6.72c.31.82.52,1.35.63,1.59.33.75.76,1.8,1.27,3.15.18.46.61,1.47,1.29,3.02.04.1.11.25.21.46.54-.87,1.32-2.39,2.36-4.56.81-1.67,1.32-2.82,1.52-3.45l-.14-.36-3.07-6.98c-.4-.87-.72-1.56-.95-2.08-.47-1.07-.81-1.69-1.02-1.84s-.85-.26-1.9-.32l-.38-.09c-.1-.1-.14-.23-.14-.37.02-.1.08-.19.16-.24.38-.01.65-.02.8-.02l1.13.03.57-.02h.98l.88-.02h.93l1.68-.09c.11,0,.27,0,.48.02l.29-.02c.17,0,.29.04.38.12.08.08.13.16.13.26,0,.08-.02.18-.07.29-.19.07-.53.13-1.02.18-.7.08-1.11.16-1.22.23-.11.07-.17.17-.17.29,0,.23.46,1.42,1.38,3.59l1.83,4.13c.56-1.1,1.32-2.82,2.28-5.18.4-.98.61-1.7.61-2.16,0-.25-.1-.48-.3-.68-.15-.14-.5-.24-1.04-.29l-.38-.05-.32-.14-.02-.14c0-.07.03-.17.09-.3.12-.1.23-.15.32-.16.18-.02,1.01,0,2.48.09h1.22l.75.02,1.25-.02c.1.01.24.04.43.09.1.1.14.18.14.27,0,.13-.05.24-.15.32-.1.08-.33.15-.69.21-.91.15-1.58.39-2.04.71-.3.23-.57.55-.8.96l-1.3,2.9c-.31.88-.56,1.54-.77,1.98-.08.27-.24.64-.46,1.09l-.73,1.7c.13.31.35.81.66,1.5l1.84,4.27c.08.19.33.72.74,1.59.41.87.75,1.67,1.03,2.41l.27-.86.04-.09,1.09-2.84c.38-.87.76-1.79,1.14-2.75l1.37-3.47,2.07-5.9c.21-.68.39-1.33.52-1.97l.05-.29c.04-.13.05-.23.05-.29,0-.17-.08-.32-.25-.46-.17-.14-.76-.32-1.77-.56-.1-.04-.19-.09-.29-.16-.04-.14-.05-.26-.05-.34l.02-.13c.5-.02.82-.04.95-.04l1.38.04,1.55-.02h1.34l.54.04.02.18c0,.08-.01.21-.04.38-.86.33-1.39.57-1.6.71-.21.14-.37.3-.48.46-.11.17-.33.62-.64,1.36-.04.07-.41,1.14-1.12,3.22-.15.31-.31.72-.48,1.23-.05.14-.15.4-.3.77l-.29.71-.2.52c-.78,2.17-1.65,4.44-2.59,6.81l-1.93,5.36-.77,2.04c-.18.02-.32.04-.41.04-.08,0-.2,0-.34-.02-.16-.44-.5-1.27-1.02-2.5-1.37-3.12-2.6-5.71-3.69-7.77l-.21.36c-.61,1.16-1.34,2.69-2.19,4.59l-1.39,2.82c-.57,1.2-1.03,2.04-1.39,2.5l-.82.02-2.89-7.08-2.39-5.61-2.1-5.33c-.14-.35-.27-.67-.38-.98-.08-.23-.16-.46-.23-.7-.12-.37-.45-1.21-1-2.52-.21-.35-.56-.57-1.03-.66-.48-.09-.83-.19-1.05-.29Z"/>
        <path class="d" d="m35.26,10.72l.02-.53c.77-.23,1.19-.36,1.25-.39.43-.19.88-.48,1.35-.88s.87-.84,1.19-1.33c.14-.02.26-.04.34-.04l.21.02c.05.57.07.99.07,1.25,0,.06-.01.33-.04.8v.95l.02,5.15-.05,5.45c-.01.44.06.75.21.92.15.17.61.37,1.38.58.48.13.83.24,1.07.34.04.08.05.15.05.21,0,.07-.03.16-.09.27-.46-.01-1.06-.04-1.79-.09-.99-.08-1.64-.12-1.97-.12-.16,0-1.11.03-2.86.09-.36.01-.7.04-1.04.09-.06,0-.16-.02-.29-.05-.06-.08-.09-.15-.09-.21,0-.17.11-.3.34-.39.05-.02.66-.16,1.82-.41.38-.07.63-.19.75-.36.2-.25.3-.65.3-1.2.02-.92.04-3.43.04-7.53,0-.82-.04-1.33-.11-1.53-.06-.14-.22-.31-.47-.49s-.8-.37-1.63-.56Zm1.5-9.27c0-.39.15-.73.46-1.02.3-.29.67-.43,1.1-.43s.83.16,1.16.48c.33.32.5.67.5,1.04s-.17.72-.5,1.05c-.33.33-.72.49-1.16.49s-.81-.15-1.11-.45c-.3-.3-.45-.68-.45-1.16Z"/>
        <path class="d" d="m44.74,22.82c.3-.08.64-.15,1.04-.21.75-.11,1.2-.23,1.35-.37.15-.14.22-.47.22-.98l.04-.64c.01-.24.02-.54.02-.91l-.04-5.47c0-.74-.1-1.21-.29-1.42-.32-.33-.92-.56-1.79-.69v-.65c.87-.24,1.54-.55,2-.93.68-.54,1.25-1.27,1.72-2.19l.61.02c.04.56.05.96.05,1.2v1.18l.02.32c.14-.1.31-.22.5-.36.71-.54,1.45-.98,2.2-1.32.75-.34,1.42-.58,2-.71.37-.1.79-.14,1.25-.14.98,0,1.82.26,2.52.79.7.52,1.16,1.14,1.37,1.85.21.71.31,2.12.31,4.23v2.7c0,.07,0,.31-.03.72-.02.41-.03.87-.03,1.4,0,.83.04,1.37.11,1.59.06.16.21.31.46.47,1.14.16,1.81.34,2,.55v.14c0,.12-.04.27-.11.45h-.34l-2.36-.04-2.32.05c-.86.02-1.65.02-2.38-.02l-.11-.38c0-.07.04-.17.13-.29.32-.14.77-.24,1.36-.29.35-.02.58-.06.71-.11.13-.05.29-.14.48-.29.14-.29.21-.52.21-.72,0-.08-.01-.25-.04-.5-.04-.55-.06-1.91-.07-4.1v-.93l.04-1.43c0-1.54-.31-2.6-.93-3.19-.62-.58-1.45-.88-2.48-.88-.8,0-1.58.18-2.34.53s-1.5.88-2.22,1.58c-.02.57-.04,1.06-.04,1.47l.05,3.95c0,2.06.03,3.32.09,3.79.02.19.07.32.12.39.1.1.29.17.57.23.29.06.62.14.99.25.38.11.62.17.74.2.24.06.4.18.48.36l-.02.36h-1.88l-3.86-.05c-.89.01-1.46.02-1.7.02h-.45l-.04-.23c0-.08.02-.2.05-.36Z"/>
        <path class="d" d="m69.31,5.75l.55.02.07,1.7-.04,2.2c.23.01.37.02.43.02.31,0,.9-.02,1.77-.07.56-.04,1.1-.05,1.61-.05.24,0,.6,0,1.07.02.02.24.04.43.04.57,0,.15-.04.4-.11.73h-.3l-2.77.09-1.38.04-.32.04c-.1.3-.14.64-.14,1.04l.05,2.68-.04,4.72c0,1.24.16,2.06.48,2.47.31.42.77.63,1.39.63.31,0,.89-.1,1.75-.29.26-.06.61-.26,1.05-.59h.16c.11,0,.19.03.26.1s.1.15.1.26l-.02.12c-.51.56-1.1.97-1.76,1.22-.66.26-1.54.38-2.64.38-.77,0-1.42-.18-1.92-.54-.51-.36-.83-.78-.97-1.27-.14-.49-.21-1.55-.21-3.2l.07-4.02-.02-1.93v-.71c0-.33-.01-.67-.04-1l-.3-.02-1.47.05-.14.02c-.13,0-.23-.03-.29-.09-.07-.06-.1-.13-.1-.21,0-.14.04-.26.13-.35s.36-.23.81-.42c.31-.13.67-.38,1.08-.74.41-.36.76-.77,1.05-1.21.14-.24.35-.69.61-1.36.19-.49.33-.83.43-1.04Z"/>
        <path class="d" d="m90.49,13.97l-7.17.05h-1.36c-.55,0-1.11.02-1.68.07-.11.36-.16.6-.16.73l.02.18v.18l-.02.88c0,.73.23,1.62.69,2.67.46,1.05,1.11,1.86,1.97,2.41.85.55,1.92.85,3.19.88.68-.04,1.22-.12,1.63-.25.4-.13.98-.44,1.72-.91l1.29-1.05.11.71c0,.08,0,.17-.02.27-.54.68-1.22,1.27-2.04,1.79-.82.51-1.66.89-2.5,1.13-.41.11-1.07.16-2,.16-.85,0-1.68-.17-2.5-.52-1.21-.52-2.17-1.37-2.87-2.53-.7-1.16-1.05-2.57-1.05-4.23,0-.52.1-1.2.29-2.02.2-.82.55-1.7,1.06-2.63.35-.63.77-1.15,1.27-1.55.71-.57,1.34-.97,1.88-1.2.77-.32,1.67-.48,2.7-.48,1.11,0,2.01.2,2.72.61.95.54,1.67,1.23,2.14,2.07.47.85.71,1.62.71,2.32v.25Zm-9.97-.64h.84c.61,0,2.42-.1,5.43-.29.48-.02.77-.07.88-.14.21-.23.32-.43.32-.61,0-.37-.12-.79-.36-1.26-.24-.47-.6-.83-1.1-1.09-.49-.26-1.07-.38-1.72-.38-1.38,0-2.49.52-3.32,1.55-.64.79-.96,1.52-.96,2.22Z"/>
        <path class="d" d="m93.77,23.46l-.07-.23c0-.08.05-.21.16-.38l1.05-.21,1.48-.27c.12-.06.2-.14.25-.25.07-.15.11-.61.11-1.37,0-4.04-.02-6.38-.07-7-.05-.62-.15-1.02-.32-1.19-.17-.17-.6-.3-1.29-.39-.41-.06-.73-.14-.96-.23l.07-.54c1.25-.51,2.09-.96,2.52-1.33.6-.54,1.1-1.24,1.52-2.11l.61.02c.07.6.11,1.92.11,3.97l-.02.3c0,.07.01.19.04.34.45-.82,1.02-1.58,1.7-2.27l.41-.41c.17-.19.33-.34.48-.45.83-.5,1.45-.75,1.86-.75.52,0,.95.18,1.29.53.33.35.5.78.5,1.3,0,.41-.12.72-.36.95-.32.3-.69.45-1.11.45-.19,0-.57-.1-1.13-.3-.56-.2-.93-.3-1.11-.3-.33,0-.57.05-.7.16-.33.26-.74.8-1.21,1.61-.37.61-.55,1.17-.55,1.68l.09,2.96.04,3.55c.04.41.08.67.14.79.05.08.17.19.36.3,1.29.11,2.05.19,2.29.23.17.01.29.02.38.04.51.01.87.08,1.07.21.11.06.16.15.16.27,0,.07-.05.17-.14.29l-1.98-.04-.75-.02-1.09.02h-1.82l-.98.05-3,.05Z"/>
        <path class="d" d="m118.02,23.7l.02-.39c.4-.23.88-.37,1.41-.43.85-.11,1.38-.22,1.61-.33s.39-.27.48-.47c.17-.39.25-.79.25-1.2l-.04-1.36.02-1.25-.04-1.47c0-.61.02-1.37.05-2.28.04-.91.05-1.4.05-1.46v-4.88c0-.77.02-1.61.05-2.51.04-.9.05-1.52.05-1.87,0-1.03-.02-1.62-.07-1.79-.05-.17-.14-.29-.27-.36-.13-.07-.56-.14-1.29-.2-.56-.05-.95-.09-1.16-.13-.06-.13-.09-.24-.09-.32,0-.1,0-.21.02-.34.29-.02.51-.04.66-.04l1.68.02c1.19,0,2.45-.05,3.79-.14.66-.05,1.64-.09,2.97-.12.02.11.04.21.04.3,0,.12-.03.21-.08.28-.05.07-.15.11-.28.13-1.56.13-2.48.32-2.76.58-.28.26-.42.91-.42,1.96,0,1.93.03,3.92.09,5.97l.07,1.68c.06.05.83.11,2.32.18.4.02.64.04.71.04l2.63-.04,1.73.05,4.54-.14c.56-.01.9-.04,1.02-.07.07-2.07.11-4.07.11-6s-.04-2.96-.12-3.29c-.05-.2-.13-.34-.25-.41-.07-.04-.69-.13-1.86-.28-.2-.02-.39-.05-.57-.09-.06-.18-.09-.39-.09-.62.4-.06.66-.09.77-.09l1.18.06c1.08.05,2.18.08,3.27.08.7,0,1.87-.06,3.5-.18-.01.24-.04.45-.09.64-.45.18-.99.29-1.62.34-.41.02-.75.09-1.02.2-.23.17-.34.51-.34,1.02,0,.12,0,.25.02.39.01.43.02.71.02.84v2.06l.02,1.29-.04,1.66.02,3.11-.04,2.93c0,.58.02,1.5.05,2.73l-.02,2.41c0,.81.07,1.39.21,1.73.07.17.19.29.36.36l1.45.32c.71.18,1.14.32,1.28.44.14.11.21.25.21.4l-.05.21-.09.02c-.06,0-.14-.01-.23-.04-1.3-.24-2.66-.36-4.09-.36-1.12,0-1.92.02-2.39.05s-1.45.17-2.94.39c-.02-.15-.04-.27-.04-.34,0-.08.01-.2.04-.34.37-.21.95-.36,1.75-.45.6-.06,1.07-.25,1.41-.57.22-.21.34-.53.34-.95l-.02-2.57c.04-.77.05-1.2.05-1.27,0-1.01-.02-2.49-.05-4.43-.04-.17-.1-.27-.2-.3-.32-.11-1.91-.08-4.75.07-.57.04-1,.05-1.29.05s-.88-.01-1.79-.04c-.91-.03-1.76-.04-2.53-.04-.42,0-.77,0-1.05.02-.55.01-.85.02-.91.02-.27,0-.46.05-.56.16-.1.11-.15.3-.15.59l.02,1.25c0,.2-.03,1.33-.09,3.38-.01.42-.02.76-.02,1.04,0,1.63.06,2.72.18,3.25.06.25.17.42.32.52.11.07.57.2,1.39.38.55.12.96.23,1.25.34l.11.18c0,.06-.02.11-.07.14-.07.06-.17.09-.3.09-.1,0-.21,0-.34,0s-.39-.02-.77-.03c-.61-.01-1.37-.05-2.27-.12-.58-.05-1.1-.07-1.55-.07-.76,0-1.98.04-3.66.12-.32.01-.6.02-.82.02Z"/>
        <path class="d" d="m146.83,9.33c.26-.02.48-.04.66-.04h.86l1.16-.04,1.52.05,1.23-.04c.66,0,1.25.04,1.77.12.05.12.07.21.07.29l-.02.14c-.25.12-.64.2-1.16.25-.74.06-1.27.19-1.59.39l-.04.2c0,.12.05.3.14.54.06.14.14.36.23.64.26.88.83,2.59,1.71,5.12.63,1.83,1.22,3.4,1.76,4.71.33-.72.7-1.63,1.12-2.74l1.5-4.24c.35-.92.61-1.85.79-2.78.07-.37.11-.66.11-.88,0-.18-.08-.35-.23-.5-.16-.15-.46-.29-.93-.39-.85-.21-1.3-.35-1.38-.4s-.11-.17-.12-.35c.07-.06.15-.11.25-.14h1.11l1.2.02,1.79-.02,1.14.02.29-.02c.08,0,.22.01.41.04.12.06.18.15.18.29,0,.12-.05.23-.16.32l-.36.05c-.69.1-1.22.27-1.59.54-.2.14-.38.44-.52.89-.05.17-.12.38-.23.64-.06.14-.15.38-.26.71-.11.33-.26.73-.44,1.18l-.21.5-.02.09-3.03,8-2.21,6.02c-.14.3-.31.67-.5,1.11-.45.85-.72,1.31-.8,1.4-.36.44-.67.75-.93.93l-.91.39c-.18.05-.37.07-.57.07-.54,0-.93-.12-1.18-.35-.25-.23-.38-.56-.38-.96,0-.38.18-.73.55-1.04.12-.04.24-.08.36-.14l.23-.05c1.06.19,1.72.29,1.99.29.25-.13.44-.29.56-.46.58-.87,1.09-1.83,1.51-2.9.42-1.07.63-1.79.63-2.16,0-.41-.16-.99-.47-1.77l-1.99-5.25c-.27-.68-1.09-2.89-2.45-6.65-.08-.24-.19-.42-.32-.54l-1.22-.45-.38-.07c-.2-.08-.3-.2-.3-.36l.09-.23Z"/>
        <path class="d" d="m164.03,22.8c.19-.13.45-.22.79-.27.48-.06.85-.15,1.11-.29.21-.18.36-.43.43-.77.08-.43.12-1.94.12-4.52s-.08-4.18-.23-4.91c-.26-.17-.6-.3-1.02-.39-.13-.02-.41-.09-.82-.2v-.6c.71-.2,1.28-.47,1.71-.79s1.04-.97,1.82-1.94h.11c.07,0,.18,0,.34-.02.1.01.17.04.23.09l-.02,2.04c0,.42.01.86.04,1.34,1.27-1.16,2.41-1.97,3.42-2.43.69-.31,1.47-.46,2.34-.46,1.03,0,1.86.2,2.46.59s1.18,1.1,1.73,2.13c1.06-1.05,2.02-1.78,2.89-2.2.86-.42,1.74-.63,2.62-.63,1.33,0,2.43.44,3.29,1.31.85.88,1.28,2.18,1.3,3.88v1.49l.02,1.63-.02,4.19c-.01.49.1.86.32,1.11.09.04.46.14,1.09.32.39.11.62.19.7.25.07.06.11.14.11.25,0,.13-.04.29-.11.46h-.12l-1.8-.11c-.21-.01-.55-.02-1.02-.02-.57,0-1.37.02-2.39.07h-.91c-.13,0-.39,0-.77.02-.01-.11-.02-.2-.02-.29,0-.1.04-.21.12-.36.32-.14.76-.26,1.32-.35.56-.09.91-.25,1.05-.48.14-.23.21-1.16.21-2.78,0-3.52-.04-5.56-.12-6.12-.14-.89-.52-1.6-1.14-2.1-.62-.51-1.39-.76-2.32-.76-.72,0-1.42.19-2.1.56-.68.38-1.35.94-2.01,1.69l-.02.43v2.73l-.07,2.13c0,2.17.02,3.4.06,3.7s.14.52.3.65c.16.14.63.26,1.4.37.35.05.61.1.8.14.14.12.21.27.21.46,0,.15-.05.26-.16.32h-.3l-.89-.02h-5.2l-1.43.02c-.02-.18-.04-.31-.04-.39l.02-.21c.26-.14.75-.28,1.47-.41.37-.06.75-.16,1.14-.3.07-.06.12-.14.16-.23.06-.17.1-.64.12-1.43l.09-2.07-.04-2.34.02-1.3c0-1.47-.3-2.53-.89-3.21-.59-.67-1.34-1.01-2.25-1.01-.84,0-1.69.21-2.54.63s-1.55.98-2.11,1.68c-.01.33-.02.64-.02.91l.07,6c.01,1.31.09,2.06.22,2.24.14.19.44.31.92.38.76.11,1.26.24,1.48.39.11.07.16.18.16.32,0,.1,0,.21-.02.34-1.36-.1-2.28-.14-2.74-.14s-.91,0-1.29.02l-.9.05h-.55l-2.01.07c-.02-.08-.04-.15-.04-.21s.02-.17.07-.35Z"/>
        <path class="d" d="m193.68,22.82c.3-.08.64-.15,1.04-.21.75-.11,1.2-.23,1.35-.37.15-.14.22-.47.22-.98l.04-.64c.01-.24.02-.54.02-.91l-.04-5.47c0-.74-.1-1.21-.29-1.42-.32-.33-.92-.56-1.79-.69v-.65c.87-.24,1.54-.55,2-.93.68-.54,1.25-1.27,1.72-2.19l.61.02c.04.56.05.96.05,1.2v1.18l.02.32c.14-.1.31-.22.5-.36.71-.54,1.45-.98,2.2-1.32.75-.34,1.42-.58,2-.71.37-.1.79-.14,1.25-.14.98,0,1.82.26,2.52.79.7.52,1.16,1.14,1.37,1.85.21.71.31,2.12.31,4.23v2.7c0,.07,0,.31-.03.72-.02.41-.03.87-.03,1.4,0,.83.04,1.37.11,1.59.06.16.21.31.46.47,1.14.16,1.81.34,2,.55v.14c0,.12-.04.27-.11.45h-.34l-2.36-.04-2.32.05c-.86.02-1.65.02-2.38-.02l-.11-.38c0-.07.04-.17.12-.29.32-.14.77-.24,1.36-.29.35-.02.58-.06.71-.11.13-.05.29-.14.48-.29.14-.29.21-.52.21-.72,0-.08-.01-.25-.04-.5-.04-.55-.06-1.91-.07-4.1v-.93l.04-1.43c0-1.54-.31-2.6-.93-3.19-.62-.58-1.45-.88-2.48-.88-.8,0-1.58.18-2.34.53-.76.35-1.5.88-2.22,1.58-.02.57-.04,1.06-.04,1.47l.05,3.95c0,2.06.03,3.32.09,3.79.02.19.07.32.13.39.09.1.29.17.57.23.29.06.62.14.99.25.38.11.62.17.74.2.24.06.4.18.48.36l-.02.36h-1.88l-3.86-.05c-.89.01-1.46.02-1.7.02h-.45l-.04-.23c0-.08.02-.2.05-.36Z"/>
        <path class="d" d="m215.71,18.87c.44,1.13.77,1.86,1,2.2.45.68.99,1.21,1.63,1.58.63.38,1.32.56,2.05.56.68,0,1.35-.29,2.02-.88.48-.44.71-.95.71-1.54,0-.77-.28-1.49-.84-2.14-.56-.64-1.62-1.26-3.19-1.85-1.57-.59-2.62-1.22-3.15-1.89-.54-.67-.8-1.43-.8-2.29,0-.81.22-1.52.66-2.14.44-.62,1.05-1.09,1.82-1.4.77-.32,1.49-.47,2.14-.47.85,0,1.61.07,2.28.2s1.25.33,1.74.61c.1.61.17,1.5.23,2.68l.04.57c-.16.01-.29.02-.39.02h-.25c-.36-.99-.9-1.77-1.64-2.35-.73-.58-1.46-.87-2.17-.87s-1.29.22-1.73.65-.66,1-.66,1.71c0,.54.18,1.01.54,1.43s1.19.89,2.51,1.43,2.28,1.03,2.88,1.49c.6.46,1.05,1.02,1.33,1.67.29.66.43,1.28.43,1.88,0,.82-.27,1.59-.81,2.31s-1.22,1.22-2.04,1.51c-.82.29-1.55.44-2.19.44-1.51,0-2.91-.28-4.18-.84-.12-.1-.18-.27-.2-.54,0-.11-.01-.28-.04-.52-.19-1.61-.29-2.56-.29-2.86,0-.14.03-.24.09-.29.06-.05.21-.07.46-.07Z"/>
      </g>
      <g>
        <path class="d" d="m78.31,51.5v-.22c.14-.06.36-.12.67-.17s.52-.1.64-.15c.12-.05.21-.12.29-.2.05-.26.08-.74.08-1.44v-7.03l.03-1.17c0-.24-.05-.41-.14-.5-.09-.09-.34-.17-.74-.25s-.63-.14-.7-.19c-.07-.05-.11-.1-.11-.15,0-.03,0-.07.03-.12.08-.05.16-.07.24-.07.09,0,.27,0,.55.02h.25c.08,0,.32,0,.71-.02h1.26l2.59-.05,2.75-.11h.63c.11,0,.2.02.29.08.04.1.06.17.06.21v.36s.07,1.62.07,1.62c0,.07,0,.15-.02.25-.1.04-.18.06-.26.06-.05,0-.1-.02-.13-.05-.05-.07-.08-.19-.09-.38-.02-.26-.12-.59-.28-1-.08-.19-.21-.33-.39-.4-.36-.14-.97-.21-1.82-.21-.4,0-.78.01-1.13.03-.35.02-.56.03-.64.03h-.7c-.29,0-.53.03-.71.12-.13.05-.19.18-.19.39v.14c.02.31.03.65.03,1.02l-.03,2.46c0,.24.02.47.05.69l.26.02.5-.03h1.72c.69,0,1.17-.05,1.44-.14.18-.07.32-.17.41-.3.03-.04.1-.28.23-.71l.12-.75c.07-.04.13-.05.16-.05.03,0,.08.02.14.05.02.14.04.35.04.63l.11,3.32c-.1.04-.18.06-.23.06l-.1-.02c-.1-.6-.25-1.07-.45-1.42-.07-.12-.15-.19-.24-.21-.16-.04-.87-.05-2.15-.05-.4,0-.67,0-.82,0-.36.02-.58.03-.65.03h-.09c-.18,0-.31.02-.39.07-.02.07-.04.12-.04.15v.62c0,.07,0,.37,0,.9l-.02,2.99c0,.08.02.19.07.32.13.1.36.17.69.2.33.03.65.11.94.24.17.08.25.17.25.26,0,.04-.01.08-.04.12s-.07.06-.13.08c-.49-.1-1.17-.15-2.05-.15-.46,0-.95.04-1.47.13-.35.05-.76.08-1.22.08l-.18-.04Z"/>
        <path class="d" d="m93.18,51.08c.13-.05.27-.09.41-.1.92-.06,1.45-.17,1.58-.33.13-.16.2-.93.2-2.32v-.95s0-.99,0-.99l-.04-1.09.02-.64v-.71s0-.83,0-.83l-.02-.37.02-.47c0-.11,0-.23,0-.38,0-.38-.02-.78-.05-1.2-.02-.08-.06-.17-.1-.24-.22-.11-.58-.19-1.08-.23-.5-.04-.78-.08-.84-.13-.05-.04-.08-.13-.08-.28h.76l2.4.05c.61,0,1.44-.02,2.46-.05,0,.1,0,.19-.02.27-.12.03-.32.06-.6.1-.57.07-.92.13-1.05.19-.08.03-.14.08-.17.15-.06.11-.1.31-.11.61l-.05,1.17.04,4.02v1.59c-.01.5-.02.84-.02,1.02,0,.67.02,1.11.05,1.29.03.19.09.32.17.4.08.08.21.15.4.19.28.07.49.1.65.11.34.01.55.06.64.14.02.08.03.14.03.2v.07c-.55.02-.95.03-1.21.03-.15,0-.42,0-.81-.03l-1.25.02h-2.13s-.17,0-.17,0l-.02-.27Z"/>
        <path class="d" d="m104.07,51.42c0-.09.03-.17.07-.24.47-.13.93-.21,1.37-.25.29-.02.48-.09.57-.2.06-.08.1-.37.11-.87l.06-2.39v-1.62s0-2.11,0-2.11v-.56c0-1.27,0-2.06-.02-2.38,0-.06-.03-.14-.07-.25-.16-.07-.29-.12-.4-.14s-.58-.11-1.42-.26c0-.07,0-.11,0-.14,0-.04,0-.08,0-.14.11,0,.3,0,.56.02l1.37.05.8.02h.23s.12,0,.26,0c.36,0,.56,0,.62,0l.72-.05c.49,0,.83,0,1.03.03,0,.11-.03.23-.06.35-.07.01-.38.03-.94.05-.56.02-.88.06-.97.1-.14.08-.21.32-.21.72,0,.1,0,.29-.02.59v2.21s0,.57,0,.57l.02,2.99-.03,2.55v.56c0,.18.04.29.1.33.15,0,.59.01,1.33.02h.61l1.56-.05c.41-.01.7-.05.88-.12s.47-.27.88-.61c.25-.22.44-.44.58-.67.03-.05.08-.12.15-.22.11-.16.27-.47.46-.94h.3c-.04.22-.08.42-.12.61-.17.85-.3,1.56-.36,2.12-.01.12-.02.23-.04.33l-3.38-.1c-2.9,0-4.62.03-5.17.08-.17.01-.35.02-.53.02h-.94Z"/>
        <path class="d" d="m119.31,51.15c.19-.13.52-.22,1.01-.27.38-.02.61-.05.68-.1.05-.04.08-.08.11-.13.09-.22.16-.82.2-1.81.06-1.28.14-2.99.27-5.12.1-1.63.15-2.64.15-3.04v-.23c-.44-.09-1.12-.19-2.07-.29-.06-.09-.09-.16-.09-.21,0-.03.02-.08.06-.16.1-.04.18-.05.23-.05.05,0,.15.01.32.04.29.04.7.06,1.22.06.17,0,.46-.01.87-.04.29-.02.45-.03.49-.03.1,0,.21.02.33.05.06.06.11.12.14.17l.38.85,2.56,5.65,1.07,2.37c.83-1.66,1.48-3.13,1.94-4.42.03-.1.07-.18.11-.26.05-.1.11-.22.15-.34s.24-.61.58-1.44c.14-.34.25-.63.33-.87.34-.96.54-1.51.6-1.65.11-.05.21-.07.3-.07.1,0,.22,0,.37.03.34.02.89.03,1.65.03.47,0,.86,0,1.16-.02.01.07.02.11.02.14,0,.04,0,.1-.03.17-.19.1-.42.16-.7.17-.54.03-.88.07-1.02.13s-.24.12-.28.21c-.04.08-.07.36-.1.83v.42s0,.43,0,.43c0,.9.02,2.42.07,4.55v1.77s0,1.14,0,1.14c0,.45.02.71.06.79.04.08.16.16.36.23.32.11.85.22,1.59.33.04.03.06.07.06.12,0,.05,0,.11,0,.18h-.42c-.36,0-.74-.01-1.16-.03-.42-.02-.64-.03-.67-.03-1.24,0-2.06.01-2.46.04-.25.02-.4.03-.47.03-.04,0-.09-.01-.14-.04v-.12c0-.05,0-.11.03-.17.2-.08.47-.14.81-.17.38-.1.66-.21.83-.33.05-.23.08-.7.08-1.4l-.03-1.83c0-.2.01-.57.03-1.11.02-.54.03-1.42.03-2.65,0-.97-.02-1.71-.07-2.21-.1.21-.3.67-.6,1.37l-.13.34-.02.05-1.33,3.16-.48,1.22-.62,1.48c-.27.68-.5,1.28-.69,1.81-.08.24-.15.43-.21.57h-.21c-.68-2-1.49-4.03-2.44-6.12s-1.61-3.47-1.99-4.14c-.05.26-.11,1.01-.17,2.26-.08,1.52-.12,3.19-.12,5.01,0,.57.04,1.21.13,1.93.02.2.11.36.26.45s.54.15,1.17.17c.24,0,.47.02.69.05.04.09.06.16.06.2,0,.03-.02.08-.04.16l-2.8-.1c-.2,0-.52.01-.96.04-.24.02-.59.03-1.04.03v-.24Z"/>
        <path class="d" d="m146.41,40.22c.05.4.07.63.07.69l-.04.8c-.01.34-.03.56-.04.66-.05.02-.1.04-.14.04l-.08-.02c-.19-.84-.52-1.46-.98-1.84-.46-.39-1.02-.58-1.68-.58s-1.25.19-1.69.58c-.44.39-.66.83-.66,1.35,0,.39.15.75.46,1.07.31.33,1.09.81,2.36,1.46.96.5,1.65.91,2.07,1.22.42.32.73.68.94,1.1.21.42.32.88.32,1.39,0,.64-.17,1.25-.5,1.82s-.78.99-1.35,1.28c-.57.29-1.32.43-2.25.43-.81,0-1.59-.13-2.34-.39-.44-.16-.71-.28-.8-.38-.1-.1-.14-.2-.14-.31,0-.07,0-.15.02-.25.08-.71.13-1.29.13-1.75.01-.28.03-.45.06-.5.02-.04.07-.06.14-.06.05,0,.1.02.13.06s.06.11.07.22c.07.74.41,1.4,1.03,1.99.61.58,1.31.88,2.09.88.48,0,.91-.1,1.31-.3s.71-.49.94-.86c.23-.38.34-.74.34-1.1,0-.49-.17-.93-.51-1.34s-1.03-.87-2.07-1.41-1.71-.93-2.02-1.18c-.51-.4-.89-.83-1.14-1.28-.19-.35-.28-.76-.28-1.22,0-.84.33-1.55.99-2.13s1.55-.87,2.66-.87c.61,0,1.14.07,1.59.21.33.11.66.29,1,.53Z"/>
      </g>
    </g>
  </g>
</svg>